<?xml version="1.0" standalone="no"?>
<!DOCTYPE svg PUBLIC "-//W3C//DTD SVG 20010904//EN"
 "http://www.w3.org/TR/2001/REC-SVG-20010904/DTD/svg10.dtd">
<svg version="1.0" xmlns="http://www.w3.org/2000/svg"
 width="610.000000pt" height="610.000000pt" viewBox="0 0 610.000000 610.000000"
 preserveAspectRatio="xMidYMid meet">
<metadata>
Created by potrace 1.14, written by Peter Selinger 2001-2017
</metadata>
<g transform="translate(0.000000,610.000000) scale(0.100000,-0.100000)"
fill="#000000" stroke="none">
<path d="M1157 4724 c-1 -1 -31 -5 -67 -8 -271 -26 -522 -168 -689 -390 -186
-246 -237 -581 -135 -886 73 -216 244 -398 490 -518 45 -21 92 -42 105 -45 13
-3 42 -10 64 -16 22 -6 63 -14 90 -18 63 -10 402 -10 476 -1 201 26 499 119
499 157 1 9 2 120 3 247 l2 231 28 36 c29 38 91 63 168 66 9 1 15 10 15 26 l0
25 -441 0 -441 0 -2 -24 c-1 -22 3 -24 62 -29 71 -7 119 -29 149 -70 19 -24
20 -43 22 -273 l1 -246 -26 -10 c-54 -23 -184 -46 -256 -46 -229 0 -419 125
-495 326 -29 80 -57 193 -69 287 -10 80 -7 396 4 448 3 15 8 39 11 54 41 238
122 387 260 483 146 101 369 112 554 29 173 -78 305 -230 391 -446 9 -24 19
-33 36 -33 23 0 24 3 25 68 3 225 1 573 -3 577 -13 14 -51 -15 -72 -55 -15
-30 -36 -51 -61 -64 -43 -21 -21 -26 -247 53 -127 45 -221 61 -360 65 -49 1
-90 1 -91 0z"/>
<path d="M3844 4655 c0 -23 3 -25 51 -26 93 -1 140 -20 179 -72 21 -28 21 -32
21 -776 0 -718 -1 -749 -19 -783 -25 -46 -73 -69 -161 -75 -67 -5 -71 -7 -71
-29 l0 -24 473 0 473 0 0 25 c0 23 -4 25 -42 26 -117 2 -189 41 -204 113 -4
17 -8 599 -5 684 l1 22 315 0 315 0 0 -42 c1 -24 1 -180 1 -347 0 -286 -2
-306 -21 -346 -26 -53 -70 -76 -160 -83 -65 -5 -83 -14 -73 -39 4 -11 92 -13
478 -13 l473 0 -2 24 c-1 22 -6 24 -72 28 -79 5 -124 25 -158 71 -21 28 -21
32 -21 782 0 750 0 754 21 782 39 52 86 71 180 72 49 1 52 2 50 26 l-1 25
-472 0 c-368 0 -472 -3 -476 -12 -9 -27 6 -38 50 -38 96 0 171 -37 194 -97 7
-20 12 -316 9 -615 l0 -58 -317 0 -318 0 1 298 c1 164 4 319 8 345 12 82 81
127 193 127 46 0 51 2 55 25 l5 25 -476 0 -477 0 0 -25z"/>
<path d="M2929 4505 c-1 0 -3 -142 -4 -315 -1 -173 -3 -317 -4 -320 0 -3 -143
-5 -316 -5 -363 1 -326 13 -322 -110 l2 -70 320 0 320 0 0 -318 0 -318 89 3
89 3 1 315 1 315 320 0 320 0 0 88 c0 48 -2 88 -5 88 -3 1 -144 3 -315 4 -170
1 -313 3 -316 4 -4 0 -7 137 -7 304 0 166 -1 309 -1 317 -1 12 -17 15 -86 15
-47 0 -86 0 -86 0z"/>
<path d="M246 2683 c-76 -16 -157 -70 -205 -138 l-36 -49 -3 -458 c-2 -436 -2
-459 17 -496 45 -88 148 -163 246 -178 57 -8 5515 -9 5558 -1 99 20 201 101
246 197 l26 55 3 385 c3 330 1 394 -13 446 -28 106 -111 193 -220 231 -47 16
-213 17 -2804 18 -2154 0 -2768 -3 -2815 -12z"/>
</g>
</svg>
